<svg width="90" height="47" viewBox="0 0 90 47" fill="none" xmlns="http://www.w3.org/2000/svg">
<path d="M37.6598 4.96089L37.7869 4.84424H40.4556L40.5826 4.96089H42.2346L42.3617 5.07754H43.5054L43.6324 5.19419H44.522L44.6491 5.31084H45.1574L45.2844 5.42749H45.7928L45.9199 5.54414H46.4281L46.5552 5.66079H47.0636L47.1907 5.77745H47.5719L47.6989 5.8941H48.0801L48.2072 6.01075H48.5885L48.7156 6.1274H48.9697L49.0968 6.24391H49.3509L49.478 6.36056H49.7321L49.8593 6.47721H50.1134L50.2405 6.59386H50.4946L50.6217 6.71052H50.8758L51.0029 6.82717H51.2571L51.3842 6.94382H51.5113L51.6383 7.06047H51.8925L52.0195 7.17712H52.1466L52.2737 7.29377H52.5278L52.655 7.41042H52.7821L52.9091 7.52708H53.0362L53.1633 7.64373H53.2903L53.4174 7.76038H53.5445L53.6715 7.87703H53.7986L53.9256 7.99368H54.0529L54.1799 8.11033H54.307L54.434 8.22698H54.5611L54.6882 8.34363H54.8152L54.9423 8.46029H55.0694L55.1964 8.57693H55.3235L55.5778 8.81024H55.7048L55.959 9.04354H56.086L56.3401 9.2767H56.4672L56.5943 9.39335H56.7213L56.9756 9.62666H57.1027L57.4839 9.97661H57.6109L57.8651 10.2099H57.9921L58.2464 10.4432H58.3735L58.6276 10.6765H58.7547L59.0088 10.9098H59.1359L59.39 11.1431H59.517L59.8984 11.4931H60.0254L60.2796 11.7264H60.4066L60.7878 12.0762H60.9149L61.2962 12.4261H61.4233L61.6774 12.6594H61.8045L62.0586 12.8927H62.1857L62.3127 13.0094H62.4399L62.6941 13.2427H62.8211L62.9482 13.3594H63.0753L63.2023 13.476H63.3294L63.4565 13.5927H63.5835L63.7106 13.7093H63.8378L63.9649 13.826H64.219L64.3461 13.9426H64.4731L64.6002 14.0593H64.8543L64.9814 14.1759H65.2356L65.3627 14.2926H65.7439L65.871 14.4092H66.2522L66.3792 14.5259H66.8876L67.0147 14.6425H67.65L67.7771 14.7592H68.5396L68.6667 14.8758H69.4292L69.5563 14.9923H70.3186L70.4457 15.109H71.0812L71.2082 15.2256H71.8436L71.9706 15.3423H72.479L72.6061 15.4589H73.1143L73.2414 15.5756H73.6227L73.7498 15.6922H74.131L74.2581 15.8089H74.6393L74.7663 15.9255H75.0206L75.1477 16.0422H75.4018L75.5289 16.1588H75.91L76.0371 16.2755H76.2912L76.4184 16.3921H76.5455L76.6726 16.5088H76.9267L77.0538 16.6254H77.1808L77.3079 16.7421H77.562L77.6891 16.8588H77.8163L77.9434 16.9754H78.0704L78.1975 17.0921H78.4516L78.5787 17.2087H78.7057L78.8328 17.3254H78.9599L79.0869 17.442H79.2141L79.4683 17.6753H79.5953L79.7224 17.792H79.8495L79.9765 17.9085H80.1036L80.3577 18.1418H80.4848L80.7391 18.3751H80.8661L81.2473 18.725H81.3744L81.7556 19.075H81.8826L83.2805 20.3581V20.4748L83.6618 20.8246V20.9413L83.916 21.1746V21.2912L84.1701 21.5245V21.6412L84.2971 21.7578V21.8745L84.4242 21.9911V22.1078L84.5513 22.2244V22.3411L84.6783 22.4577V22.691L84.8055 22.8077V23.041L84.9326 23.1576V23.5076L85.0597 23.6242V23.9741L85.1867 24.0907V24.674L85.3138 24.7906V25.7238L85.4409 25.8405V27.2402L85.3138 27.3568V27.5901L85.1867 27.7068V27.8234L85.0597 27.9401V28.0567L84.5513 28.5233H84.4242L84.1701 28.7566H83.916L83.7889 28.8733H82.7722L82.6452 28.9899H40.9638L40.8367 28.8733H37.6598L37.5328 28.9899H35.8808L35.7536 29.1066H35.1183L34.9912 29.2232H34.61L34.483 29.3399H34.2287L34.1016 29.4564H33.8475L33.7204 29.573H33.4663L33.3392 29.6897H33.2122L33.0851 29.8063H32.8308L32.7038 29.923H32.5767L32.4496 30.0396H32.3226L32.1955 30.1563H32.0685L31.9414 30.2729H31.8143L31.5601 30.5062H31.433L31.1789 30.7395H31.0518L30.9247 30.8562H30.7977L30.4165 31.2062H30.2894L29.781 31.6728H29.6539L28.5102 32.7225H28.3832V32.8391L26.7312 34.3556V34.4722L26.35 34.8222V34.9388L25.9687 35.2887V35.4053L24.4125 36.973L23.5188 37.3784L22.3813 37.5405L21.325 37.3784L20.4313 36.8919L19.1066 35.2887V35.1721L18.8523 34.9388V34.8222L18.5982 34.5889V34.4722L18.4712 34.3556V34.2389L18.3441 34.1223V34.0056L18.217 33.889V33.7723L18.09 33.6557V33.539L17.9629 33.4224V33.1891L17.8358 33.0724V32.9558L17.7088 32.8391V32.4892L17.5816 32.3725V32.1394L17.4545 32.0227V31.5561L17.3274 31.4394V30.7395L17.2004 30.6229V29.1066L17.3274 28.9899H15.8025L15.6755 28.8733H14.4047L14.2776 28.7566H13.7693L13.6423 28.64H13.1339L13.0068 28.5233H12.7527L12.6256 28.4067H12.3715L12.2444 28.29H11.9902L11.8631 28.1734H11.736L11.609 28.0567H11.4819L11.3548 27.9401H11.2278L11.1007 27.8234H10.9736L10.7195 27.5901H10.5923L10.3382 27.3568H10.2111L8.94033 26.1904V26.0738L8.6862 25.8405V25.7238L8.43208 25.4905V25.2572L8.30501 25.1406V25.0239L8.17795 24.9073V24.674L8.05088 24.5573V24.2074L7.92382 24.0907V23.6242L7.79661 23.5076V22.4577L7.66955 22.3411V18.725L7.79661 18.6084V17.9085L7.92382 17.792V17.3254L8.05088 17.2087V16.9754L8.17795 16.8588V16.6254L8.43208 16.3921V16.2755L9.0674 15.6922H9.19446L9.44873 15.4589H9.70286L9.82992 15.3423H10.2111L10.3382 15.2256H10.8466L10.9736 15.109H11.3548L11.4819 14.9923H11.736L11.8631 14.8758H12.1174L12.2444 14.7592H12.4986L12.6256 14.6425H12.7527L12.8798 14.5259H13.1339L13.2609 14.4092H13.388L13.5152 14.2926H13.6423L13.7693 14.1759H13.8964L14.0235 14.0593H14.1505L14.2776 13.9426H14.4047L14.5317 13.826H14.6588L14.7859 13.7093H14.9131L15.0401 13.5927H15.1672L15.2943 13.476H15.4213L15.5484 13.3594H15.6755L15.9296 13.1261H16.0566L16.1837 13.0094H16.3109L16.565 12.7761H16.6921L16.8192 12.6594H16.9462L17.2004 12.4261H17.3274L17.5816 12.1928H17.7088L17.9629 11.9597H18.09L18.3441 11.7264H18.4712L18.7253 11.4931H18.8523L19.1066 11.2598H19.2337L19.4878 11.0265H19.6149L19.869 10.7932H19.9961L20.2502 10.5599H20.3773L20.6315 10.3266H20.7586L21.0127 10.0933H21.1398L21.3939 9.85996H21.521L21.7751 9.62666H21.9023L22.1564 9.39335H22.2835L22.5376 9.16019H22.6647L22.7918 9.04354H22.9188L23.173 8.81024H23.3002L23.5543 8.57693H23.6814L23.8084 8.46029H23.9355L24.0625 8.34363H24.1896L24.3167 8.22698H24.4437L24.5708 8.11033H24.698L24.8251 7.99368H24.9521L25.0792 7.87703H25.2063L25.3333 7.76038H25.4604L25.5875 7.64373H25.7145L25.8416 7.52708H25.9687L26.0959 7.41042H26.2229L26.35 7.29377H26.6041L26.7312 7.17712H26.8582L26.9853 7.06047H27.1124L27.2394 6.94382H27.4937L27.6208 6.82717H27.7478L27.8749 6.71052H28.129L28.2561 6.59386H28.5102L28.6373 6.47721H28.8916L29.0186 6.36056H29.2728L29.3998 6.24391H29.6539L29.781 6.1274H30.1622L30.2894 6.01075H30.5435L30.6706 5.8941H31.0518L31.1789 5.77745H31.433L31.5601 5.66079H31.9414L32.0685 5.54414H32.5767L32.7038 5.42749H33.2122L33.3392 5.31084H33.9746L34.1016 5.19419H34.8642L34.9912 5.07754H36.0079L36.1349 4.96089H37.6598Z" fill="#FFFDF9"/>
<path d="M26.8144 22.4975L26.6875 22.615H26.1797L26.0526 22.7325H25.6718L25.5449 22.8501H25.2909L25.164 22.9676H25.0371L24.9101 23.0851H24.7831L24.6562 23.2026H24.4023L24.1483 23.4375H24.0214L23.8945 23.5552H23.7675L23.3866 23.9076H23.2597L21.9902 25.0828V25.2003L21.7363 25.4353V25.5528L21.4823 25.7879V25.9054L21.3554 26.0228V26.1403L21.2285 26.2578V26.3753L21.1016 26.4929V26.6104L20.9745 26.7279V26.9629L20.8476 27.0804V27.3155L20.7206 27.433V27.668L20.5937 27.7855V28.2555L20.4668 28.373V30.7232L20.5937 30.8408V31.3108L20.7206 31.4283V31.7809L20.8476 31.8984V32.0159L20.9745 32.1334V32.3685L21.1016 32.486V32.6034L21.2285 32.7209V32.8384L21.4823 33.0735V33.191L21.7363 33.426V33.5435L22.1171 33.8961V34.0136L22.6249 34.4837V34.3661L22.8788 34.1311V34.0136L23.1328 33.7786V33.661L23.5135 33.3085V33.191L23.8945 32.8384V32.7209L24.6562 32.0159V31.8984L27.1952 29.5482H27.3223L27.957 28.9606H28.084L28.4647 28.608H28.5918L28.9726 28.2555H29.0995L29.2266 28.1381H29.3535L29.6073 27.9029H29.7343L29.9882 27.668H30.1152L30.2421 27.5505H30.369L30.4961 27.433H30.623L30.7499 27.3155H30.8769L31.0038 27.198H31.1308L31.2578 27.0804H31.3847L31.5116 26.9629H31.7656L31.8925 26.8454H32.0195L32.1464 26.7279H32.4004L32.5273 26.6104H32.6542L32.7811 26.4929H33.0351L33.1621 26.3753H33.5428L33.6699 26.2578H33.9238L34.0507 26.1403H34.5585L34.6854 26.0228H34.8124L34.4316 25.6702V25.5528L34.1776 25.3178V25.2003L32.9081 24.0251H32.7811L32.4004 23.6727H32.2733L32.1464 23.5552H32.0195L31.7656 23.3201H31.6385L31.5116 23.2026H31.3847L31.2578 23.0851H31.0038L30.8769 22.9676H30.7499L30.623 22.8501H30.369L30.2421 22.7325H29.8613L29.7343 22.615H29.2266L29.0995 22.4975H26.8144Z" fill="#DE8400"/>
<path d="M36.9707 7.69116L37.0977 7.57367H41.1602L41.2872 7.69116H42.5567L42.6836 7.80865H43.5724L43.6993 7.92613H44.461L44.5879 8.04362H45.0957L45.2227 8.16125H45.7305L45.8574 8.27874H46.3653L46.4922 8.39623H46.8731L47 8.51372H47.2539L47.3809 8.6312H47.7617L47.8886 8.74869H48.2696L48.3965 8.86618H48.6505L48.7774 8.98381H49.0312L49.1582 9.1013H49.4122L49.5391 9.21879H49.7929L49.92 9.33628H50.0469L50.1738 9.45376H50.4277L50.5548 9.57125H50.6817L50.8086 9.68888H51.0625L51.1895 9.80637H51.3164L51.4434 9.92385H51.6974L51.8243 10.0413H51.9512L52.0781 10.1588H52.2051L52.3321 10.2763H52.459L52.586 10.3939H52.7129L52.9669 10.6289H53.0938L53.2207 10.7464H53.3477L53.4746 10.8639H53.6016L53.7286 10.9814H53.8555L54.1093 11.2165H54.2364L54.3633 11.334H54.4903L54.7441 11.569H54.8712L55.125 11.8041H55.2519L55.5059 12.0391H55.6329L56.0136 12.3915H56.1407L56.3946 12.6266H56.5215L56.9024 12.9791H57.0293L57.2832 13.2141H57.4102L57.791 13.5667H57.9179L58.2988 13.9192H58.4258L58.6798 14.1543H58.8067L59.1876 14.5067H59.3145L59.4414 14.6242H59.5684L59.8224 14.8593H59.9493L60.0762 14.9768H60.2031L60.4571 15.2118H60.584L60.711 15.3293H60.8379L61.0919 15.5644H61.2188L61.3457 15.6819H61.4727L61.5996 15.7994H61.7267L61.8536 15.9169H61.9805L62.1074 16.0344H62.2343L62.3614 16.1519H62.4883L62.6153 16.2695H62.7422L62.8691 16.387H63.1231L63.25 16.5045H63.3769L63.5039 16.6219H63.7579L63.8848 16.7394H64.1386L64.2657 16.8569H64.5196L64.6465 16.9746H65.0274L65.1543 17.092H65.6622L65.7891 17.2095H66.2969L66.4238 17.327H67.1855L67.3125 17.4445H68.0743L68.2012 17.562H68.9629L69.0898 17.6796H69.7246L69.8517 17.7971H70.6133L70.7403 17.9146H71.2481L71.375 18.0321H71.8829L72.0098 18.1496H72.5176L72.6446 18.2671H73.0255L73.1524 18.3847H73.5332L73.6602 18.5022H73.9141L74.041 18.6197H74.4219L74.5488 18.7372H74.8027L74.9298 18.8546H75.1836L75.3105 18.9721H75.5645L75.6914 19.0898H75.8184L75.9453 19.2073H76.1993L76.3262 19.3247H76.4531L76.5801 19.4422H76.834L76.961 19.5597H77.0879L77.2148 19.6772H77.3419L77.4688 19.7948H77.5957L77.7227 19.9123H77.8496L77.9767 20.0298H78.1036L78.3574 20.2648H78.4844L78.7383 20.4998H78.8653L79.1191 20.7349H79.2462L79.5 20.9699H79.6269L80.7696 22.0275V22.145L81.0234 22.38V22.4975L81.2774 22.7326V22.8501L81.4043 22.9676V23.2026L81.5312 23.32V23.5552L81.6582 23.6726V23.9076L81.7852 24.0251V24.3777L81.9122 24.4952V24.9653L82.0391 25.0828V25.6704L82.166 25.7879H70.3593L70.2324 25.9053H69.8517L69.7246 25.7879L69.5977 25.9053H41.4141L41.2872 25.7879H38.1133V25.6704L37.9864 25.5527V25.3178L37.8593 25.2003V25.0828L37.7324 24.9653V24.8477L37.6055 24.7302V24.6127L37.3516 24.3777V24.2602L37.2246 24.1426V24.0251L36.8438 23.6726V23.5552L36.4629 23.2026V23.0851L35.0664 21.7924H34.9395L34.4317 21.3225H34.3048L34.0508 21.0873H33.9238L33.67 20.8524H33.5429L33.416 20.7349H33.2891L33.0352 20.4998H32.9082L32.7812 20.3823H32.6543L32.5274 20.2648H32.2734L32.1465 20.1473H32.0195L31.8926 20.0298H31.6386L31.5117 19.9123H31.2579L31.1309 19.7948H30.8769L30.75 19.6772H30.2422L30.1153 19.5597H29.4805L29.3536 19.4422H26.4336L26.3067 19.5597H25.6719L25.545 19.6772H25.1641L25.0371 19.7948H24.7832L24.6562 19.9123H24.4024L24.2755 20.0298H24.0215L23.8945 20.1473H23.7676L23.6407 20.2648H23.5136L23.3867 20.3823H23.2598L23.1329 20.4998H23.0059L22.8789 20.6174H22.7519L22.625 20.7349H22.4981L22.2441 20.9699H22.1172L21.8633 21.2048H21.7364L21.3555 21.5574H21.2286L19.7051 22.9676V23.0851L19.3243 23.4377V23.5552L19.0703 23.7901V23.9076L18.8164 24.1426V24.2602L18.6895 24.3777V24.4952L18.4355 24.7302V24.9653L18.3086 25.0828V25.2003L18.1817 25.3178V25.4353L18.0547 25.5527V25.7879H15.0079L14.8809 25.6704H14.2462L14.1191 25.5527H13.6114L13.4843 25.4353H13.2305L13.1036 25.3178H12.9766L12.8496 25.2003H12.7227L12.5957 25.0828H12.4688L12.3419 24.9653H12.2148L11.961 24.7302H11.834L11.58 24.4952V24.3777L11.3262 24.1426V24.0251L11.1993 23.9076V23.5552L11.0723 23.4377V22.9676L10.9453 22.8501V22.145L10.8184 22.0275V18.6197L10.9453 18.5022V17.9146H11.3262L11.4531 17.7971H11.961L12.0879 17.6796H12.3419L12.4688 17.562H12.7227L12.8496 17.4445H13.1036L13.2305 17.327H13.4843L13.6114 17.2095H13.7383L13.8653 17.092H14.1191L14.2462 16.9746H14.3731L14.5 16.8569H14.6269L14.7539 16.7394H14.8809L15.0079 16.6219H15.1348L15.2617 16.5045H15.5157L15.6426 16.387H15.7695L16.0234 16.1519H16.1505L16.2774 16.0344H16.4043L16.5312 15.9169H16.6582L16.7852 15.7994H16.9121L17.0391 15.6819H17.166L17.42 15.4469H17.5469L17.6738 15.3293H17.8008L17.9277 15.2118H18.0547L18.3086 14.9768H18.4355L18.6895 14.7419H18.8164L18.9434 14.6242H19.0703L19.3243 14.3893H19.4512L19.7051 14.1543H19.8321L20.086 13.9192H20.2129L20.4669 13.6842H20.5938L20.7207 13.5667H20.8477L21.2286 13.2141H21.3555L21.6093 12.9791H21.7364L21.9903 12.7441H22.1172L22.3712 12.509H22.4981L22.8789 12.1566H23.0059L23.2598 11.9216H23.3867L23.6407 11.6865H23.7676L24.0215 11.4515H24.1484L24.2755 11.334H24.4024L24.6562 11.099H24.7832L24.9102 10.9814H25.0371L25.291 10.7464H25.4179L25.545 10.6289H25.6719L25.7988 10.5114H25.9258L26.0527 10.3939H26.1797L26.3067 10.2763H26.4336L26.5605 10.1588H26.6876L26.8145 10.0413H26.9414L27.0684 9.92385H27.3224L27.4493 9.80637H27.5762L27.7031 9.68888H27.83L27.9571 9.57125H28.211L28.3379 9.45376H28.4648L28.5919 9.33628H28.8457L28.9727 9.21879H29.2266L29.3536 9.1013H29.6074L29.7343 8.98381H29.9883L30.1153 8.86618H30.3691L30.4962 8.74869H30.75L30.8769 8.6312H31.1309L31.2579 8.51372H31.6386L31.7657 8.39623H32.1465L32.2734 8.27874H32.6543L32.7812 8.16125H33.2891L33.416 8.04362H33.9238L34.0508 7.92613H34.6855L34.8125 7.80865H35.7012L35.8281 7.69116H36.9707Z" fill="#DE8400"/>
</svg>
