<svg width="32" height="32" viewBox="0 0 32 32" fill="none" xmlns="http://www.w3.org/2000/svg">
<path d="M26.6667 17.3333V14.6667C26.6667 14.3056 26.5347 13.9931 26.2708 13.7292C26.0069 13.4653 25.6944 13.3333 25.3333 13.3333H14.875L18.8125 9.39583C19.0764 9.13194 19.2083 8.81944 19.2083 8.45833C19.2083 8.09722 19.0764 7.78472 18.8125 7.52083L16.9167 5.625C16.6667 5.375 16.3542 5.25 15.9792 5.25C15.6042 5.25 15.2917 5.375 15.0417 5.625L7.5 13.1667L5.60417 15.0625C5.35417 15.3125 5.22917 15.625 5.22917 16C5.22917 16.375 5.35417 16.6875 5.60417 16.9375L7.5 18.8333L15.0417 26.375C15.2917 26.625 15.6042 26.75 15.9792 26.75C16.3542 26.75 16.6667 26.625 16.9167 26.375L18.8125 24.4792C19.0625 24.2292 19.1875 23.9167 19.1875 23.5417C19.1875 23.1667 19.0625 22.8542 18.8125 22.6042L14.875 18.6667H25.3333C25.6944 18.6667 26.0069 18.5347 26.2708 18.2708C26.5347 18.0069 26.6667 17.6944 26.6667 17.3333ZM32 16C32 18.9028 31.2847 21.5799 29.8542 24.0312C28.4236 26.4826 26.4826 28.4236 24.0312 29.8542C21.5799 31.2847 18.9028 32 16 32C13.0972 32 10.4201 31.2847 7.96875 29.8542C5.51736 28.4236 3.57639 26.4826 2.14583 24.0312C0.715278 21.5799 0 18.9028 0 16C0 13.0972 0.715278 10.4201 2.14583 7.96875C3.57639 5.51736 5.51736 3.57639 7.96875 2.14583C10.4201 0.715278 13.0972 0 16 0C18.9028 0 21.5799 0.715278 24.0312 2.14583C26.4826 3.57639 28.4236 5.51736 29.8542 7.96875C31.2847 10.4201 32 13.0972 32 16Z" fill="#0F0900"/>
<path d="M26.6667 17.3333V14.6667C26.6667 14.3056 26.5347 13.9931 26.2708 13.7292C26.0069 13.4653 25.6944 13.3333 25.3333 13.3333H14.875L18.8125 9.39583C19.0764 9.13194 19.2083 8.81944 19.2083 8.45833C19.2083 8.09722 19.0764 7.78472 18.8125 7.52083L16.9167 5.625C16.6667 5.375 16.3542 5.25 15.9792 5.25C15.6042 5.25 15.2917 5.375 15.0417 5.625L7.5 13.1667L5.60417 15.0625C5.35417 15.3125 5.22917 15.625 5.22917 16C5.22917 16.375 5.35417 16.6875 5.60417 16.9375L7.5 18.8333L15.0417 26.375C15.2917 26.625 15.6042 26.75 15.9792 26.75C16.3542 26.75 16.6667 26.625 16.9167 26.375L18.8125 24.4792C19.0625 24.2292 19.1875 23.9167 19.1875 23.5417C19.1875 23.1667 19.0625 22.8542 18.8125 22.6042L14.875 18.6667H25.3333C25.6944 18.6667 26.0069 18.5347 26.2708 18.2708C26.5347 18.0069 26.6667 17.6944 26.6667 17.3333ZM32 16C32 18.9028 31.2847 21.5799 29.8542 24.0312C28.4236 26.4826 26.4826 28.4236 24.0312 29.8542C21.5799 31.2847 18.9028 32 16 32C13.0972 32 10.4201 31.2847 7.96875 29.8542C5.51736 28.4236 3.57639 26.4826 2.14583 24.0312C0.715278 21.5799 0 18.9028 0 16C0 13.0972 0.715278 10.4201 2.14583 7.96875C3.57639 5.51736 5.51736 3.57639 7.96875 2.14583C10.4201 0.715278 13.0972 0 16 0C18.9028 0 21.5799 0.715278 24.0312 2.14583C26.4826 3.57639 28.4236 5.51736 29.8542 7.96875C31.2847 10.4201 32 13.0972 32 16Z" fill="black" fill-opacity="0.2"/>
</svg>
