<svg width="32" height="32" viewBox="0 0 32 32" fill="none" xmlns="http://www.w3.org/2000/svg">
<path d="M5.33333 14.6667V17.3333C5.33333 17.6944 5.46528 18.0069 5.72917 18.2708C5.99306 18.5347 6.30556 18.6667 6.66667 18.6667L17.125 18.6667L13.1875 22.6042C12.9236 22.8681 12.7917 23.1806 12.7917 23.5417C12.7917 23.9028 12.9236 24.2153 13.1875 24.4792L15.0833 26.375C15.3333 26.625 15.6458 26.75 16.0208 26.75C16.3958 26.75 16.7083 26.625 16.9583 26.375L24.5 18.8333L26.3958 16.9375C26.6458 16.6875 26.7708 16.375 26.7708 16C26.7708 15.625 26.6458 15.3125 26.3958 15.0625L24.5 13.1667L16.9583 5.625C16.7083 5.375 16.3958 5.25 16.0208 5.25C15.6458 5.25 15.3333 5.375 15.0833 5.625L13.1875 7.52083C12.9375 7.77083 12.8125 8.08333 12.8125 8.45833C12.8125 8.83333 12.9375 9.14583 13.1875 9.39583L17.125 13.3333H6.66667C6.30556 13.3333 5.99306 13.4653 5.72917 13.7292C5.46528 13.9931 5.33333 14.3056 5.33333 14.6667ZM0 16C0 13.0972 0.715277 10.4201 2.14583 7.96875C3.57639 5.51736 5.51736 3.57639 7.96875 2.14583C10.4201 0.715277 13.0972 0 16 0C18.9028 0 21.5799 0.715277 24.0312 2.14583C26.4826 3.57639 28.4236 5.51736 29.8542 7.96875C31.2847 10.4201 32 13.0972 32 16C32 18.9028 31.2847 21.5799 29.8542 24.0312C28.4236 26.4826 26.4826 28.4236 24.0312 29.8542C21.5799 31.2847 18.9028 32 16 32C13.0972 32 10.4201 31.2847 7.96875 29.8542C5.51736 28.4236 3.57639 26.4826 2.14583 24.0313C0.715277 21.5799 0 18.9028 0 16Z" fill="#0F0900"/>
<path d="M5.33333 14.6667V17.3333C5.33333 17.6944 5.46528 18.0069 5.72917 18.2708C5.99306 18.5347 6.30556 18.6667 6.66667 18.6667L17.125 18.6667L13.1875 22.6042C12.9236 22.8681 12.7917 23.1806 12.7917 23.5417C12.7917 23.9028 12.9236 24.2153 13.1875 24.4792L15.0833 26.375C15.3333 26.625 15.6458 26.75 16.0208 26.75C16.3958 26.75 16.7083 26.625 16.9583 26.375L24.5 18.8333L26.3958 16.9375C26.6458 16.6875 26.7708 16.375 26.7708 16C26.7708 15.625 26.6458 15.3125 26.3958 15.0625L24.5 13.1667L16.9583 5.625C16.7083 5.375 16.3958 5.25 16.0208 5.25C15.6458 5.25 15.3333 5.375 15.0833 5.625L13.1875 7.52083C12.9375 7.77083 12.8125 8.08333 12.8125 8.45833C12.8125 8.83333 12.9375 9.14583 13.1875 9.39583L17.125 13.3333H6.66667C6.30556 13.3333 5.99306 13.4653 5.72917 13.7292C5.46528 13.9931 5.33333 14.3056 5.33333 14.6667ZM0 16C0 13.0972 0.715277 10.4201 2.14583 7.96875C3.57639 5.51736 5.51736 3.57639 7.96875 2.14583C10.4201 0.715277 13.0972 0 16 0C18.9028 0 21.5799 0.715277 24.0312 2.14583C26.4826 3.57639 28.4236 5.51736 29.8542 7.96875C31.2847 10.4201 32 13.0972 32 16C32 18.9028 31.2847 21.5799 29.8542 24.0312C28.4236 26.4826 26.4826 28.4236 24.0312 29.8542C21.5799 31.2847 18.9028 32 16 32C13.0972 32 10.4201 31.2847 7.96875 29.8542C5.51736 28.4236 3.57639 26.4826 2.14583 24.0313C0.715277 21.5799 0 18.9028 0 16Z" fill="black" fill-opacity="0.2"/>
</svg>
